<svg xmlns="http://www.w3.org/2000/svg" version="1.1" xmlns:xlink="http://www.w3.org/1999/xlink" xmlns:svgjs="http://svgjs.dev/svgjs" width="1500" height="227" viewBox="0 0 1500 227">
    <svg viewBox="0 0 396 60" data-background-color="#ffffff" preserveAspectRatio="xMidYMid meet" height="227" width="1500" xmlns="http://www.w3.org/2000/svg" xmlns:xlink="http://www.w3.org/1999/xlink">
        <svg viewBox="0 0 395.52 59.696977565611654" height="59.696977565611654" width="395.52">
            <svg viewBox="0 0 395.52 84.47190539170909" height="59.696977565611654" width="395.52">
                <svg viewBox="0 0 395.52 75.46042181818181" height="75.46042181818181" width="395.52">
                    <svg viewBox="0 0 395.52 75.46042181818181" height="75.46042181818181" width="395.52" id="textblock">
                        <svg viewBox="0 0 395.52 75.46042181818181" height="75.46042181818181" width="395.52">
                            <svg width="395.52" viewBox="1.95 -38.85 206.23000000000002 39.35" height="75.46042181818181" data-palette-color="#ffffff">
                                <path d="M29.05-7.55L31.35-2.6Q30.75-2.15 29.68-1.63 28.6-1.1 27.15-0.65 25.7-0.2 23.93 0.1 22.15 0.4 20.15 0.4L20.15 0.4Q15.9 0.4 12.53-1.07 9.15-2.55 6.8-5.05 4.45-7.55 3.2-10.85 1.95-14.15 1.95-17.85L1.95-17.85Q1.95-21.95 3.43-25.4 4.9-28.85 7.45-31.35 10-33.85 13.43-35.25 16.85-36.65 20.7-36.65L20.7-36.65Q22.15-36.65 23.65-36.45 25.15-36.25 26.48-35.9 27.8-35.55 28.83-35.08 29.85-34.6 30.4-34.1L30.4-34.1Q30-33.5 29.78-33.1 29.55-32.7 29.3-32.27 29.05-31.85 28.75-31.3 28.45-30.75 27.95-29.85L27.95-29.85Q27.3-30.3 26.43-30.6 25.55-30.9 24.6-31.1 23.65-31.3 22.68-31.4 21.7-31.5 20.9-31.5L20.9-31.5Q18-31.5 15.53-30.43 13.05-29.35 11.25-27.53 9.45-25.7 8.43-23.3 7.4-20.9 7.4-18.3L7.4-18.3Q7.4-15.75 8.38-13.4 9.35-11.05 11.08-9.2 12.8-7.35 15.23-6.25 17.65-5.15 20.55-5.15L20.55-5.15Q22.1-5.15 23.55-5.45 25-5.75 26.18-6.15 27.35-6.55 28.13-6.95 28.9-7.35 29.05-7.55L29.05-7.55ZM32.9-10.5L32.9-10.5Q32.9-12.75 33.77-14.75 34.65-16.75 36.15-18.23 37.65-19.7 39.67-20.58 41.7-21.45 44.05-21.45L44.05-21.45Q46.4-21.45 48.42-20.58 50.45-19.7 51.92-18.23 53.4-16.75 54.22-14.75 55.05-12.75 55.05-10.5L55.05-10.5Q55.05-8.25 54.22-6.25 53.4-4.25 51.92-2.75 50.45-1.25 48.42-0.38 46.4 0.5 44 0.5L44 0.5Q41.7 0.5 39.67-0.3 37.65-1.1 36.15-2.55 34.65-4 33.77-6.03 32.9-8.05 32.9-10.5ZM37.15-10.45L37.15-10.45Q37.15-9.05 37.67-7.83 38.2-6.6 39.12-5.68 40.05-4.75 41.27-4.23 42.5-3.7 43.9-3.7L43.9-3.7Q45.3-3.7 46.55-4.23 47.8-4.75 48.72-5.68 49.65-6.6 50.2-7.83 50.75-9.05 50.75-10.45L50.75-10.45Q50.75-11.85 50.2-13.1 49.65-14.35 48.72-15.28 47.8-16.2 46.55-16.73 45.3-17.25 43.9-17.25L43.9-17.25Q42.5-17.25 41.27-16.73 40.05-16.2 39.12-15.28 38.2-14.35 37.67-13.1 37.15-11.85 37.15-10.45ZM58.14-10.5L58.14-10.5Q58.14-12.75 59.02-14.75 59.89-16.75 61.39-18.23 62.89-19.7 64.92-20.58 66.94-21.45 69.3-21.45L69.3-21.45Q71.64-21.45 73.67-20.58 75.69-19.7 77.17-18.23 78.64-16.75 79.47-14.75 80.3-12.75 80.3-10.5L80.3-10.5Q80.3-8.25 79.47-6.25 78.64-4.25 77.17-2.75 75.69-1.25 73.67-0.38 71.64 0.5 69.25 0.5L69.25 0.5Q66.94 0.5 64.92-0.3 62.89-1.1 61.39-2.55 59.89-4 59.02-6.03 58.14-8.05 58.14-10.5ZM62.39-10.45L62.39-10.45Q62.39-9.05 62.92-7.83 63.45-6.6 64.37-5.68 65.3-4.75 66.52-4.23 67.75-3.7 69.14-3.7L69.14-3.7Q70.55-3.7 71.8-4.23 73.05-4.75 73.97-5.68 74.89-6.6 75.44-7.83 76-9.05 76-10.45L76-10.45Q76-11.85 75.44-13.1 74.89-14.35 73.97-15.28 73.05-16.2 71.8-16.73 70.55-17.25 69.14-17.25L69.14-17.25Q67.75-17.25 66.52-16.73 65.3-16.2 64.37-15.28 63.45-14.35 62.92-13.1 62.39-11.85 62.39-10.45ZM99.69-21.45L99.69-21.45 102.24-18.9Q100.34-17.15 98.62-15.5 96.89-13.85 94.99-12.05L94.99-12.05Q97.24-9.05 99.39-6.03 101.54-3 103.74 0L103.74 0 98.84 0Q97.14-2.35 95.42-4.63 93.69-6.9 91.99-9.25L91.99-9.25 89.09-6.6 89.09 0 84.84 0 84.84-38.85 89.09-38.85 89.09-11.6Q91.89-14.15 94.44-16.53 96.99-18.9 99.69-21.45ZM129.89-7.75L135.79 0 130.69 0Q130.29-0.5 129.79-1.05L129.79-1.05Q129.39-1.55 128.81-2.23 128.24-2.9 127.54-3.75L127.54-3.75Q125.94-1.85 123.36-0.68 120.79 0.5 117.54 0.5L117.54 0.5Q114.94 0.5 112.77-0.3 110.59-1.1 109.02-2.55 107.44-4 106.56-5.98 105.69-7.95 105.69-10.3L105.69-10.3Q105.69-12.3 106.34-14.05 106.99-15.8 108.14-17.18 109.29-18.55 110.84-19.55 112.39-20.55 114.24-21.05L114.24-21.05Q113.54-22.1 112.99-23.03 112.44-23.95 112.04-24.65L112.04-24.65Q111.24-26.25 110.74-27.58 110.24-28.9 110.24-30.45L110.24-30.45Q110.24-32.15 110.91-33.52 111.59-34.9 112.77-35.85 113.94-36.8 115.52-37.33 117.09-37.85 118.84-37.9L118.84-37.9Q121.24-38 123.19-37.35 125.14-36.7 126.29-35.9L126.29-35.9Q126.29-35.9 125.91-35.38 125.54-34.85 125.11-34.25 124.69-33.65 124.31-33.13 123.94-32.6 123.94-32.55L123.94-32.55Q123.39-32.95 122.59-33.27 121.79-33.6 120.74-33.7L120.74-33.7Q119.69-33.85 118.64-33.7 117.59-33.55 116.74-33.1 115.89-32.65 115.36-31.85 114.84-31.05 114.84-29.9L114.84-29.9Q114.84-28.55 115.34-27.5 115.84-26.45 116.04-26.2L116.04-26.2 126.94-11.7 130.74-21.45 135.29-21.45 129.89-7.75ZM116.94-17.25L116.94-17.25Q115.59-17.2 114.34-16.68 113.09-16.15 112.11-15.25 111.14-14.35 110.56-13.13 109.99-11.9 109.99-10.55L109.99-10.55Q109.99-8.75 110.66-7.48 111.34-6.2 112.44-5.35 113.54-4.5 114.97-4.1 116.39-3.7 117.84-3.7L117.84-3.7Q118.84-3.7 119.89-3.95 120.94-4.2 121.89-4.63 122.84-5.05 123.64-5.65 124.44-6.25 124.94-6.95L124.94-6.95Q123.04-9.35 120.94-12.03 118.84-14.7 116.94-17.25ZM165.59 0L141.09 0 141.09-36.25 164.89-36.25 164.89-31.3 146.59-31.3 146.59-20.7 162.89-20.7 162.89-15.65 146.59-15.65 146.59-5.05 165.59-5.05 165.59 0ZM168.19-10.25L168.19-10.25Q168.19-12.55 169.06-14.58 169.94-16.6 171.44-18.13 172.94-19.65 174.91-20.55 176.88-21.45 179.13-21.45L179.13-21.45Q180.63-21.45 181.88-21.08 183.13-20.7 184.03-20.15 184.94-19.6 185.48-19 186.03-18.4 186.23-17.95L186.23-17.95 186.44-20.9 190.53-20.9 190.53 0 186.23 0 186.23-2.65Q185.98-2.25 185.44-1.7 184.88-1.15 184.01-0.68 183.13-0.2 181.94 0.15 180.73 0.5 179.19 0.5L179.19 0.5Q176.78 0.5 174.76-0.38 172.73-1.25 171.28-2.73 169.83-4.2 169.01-6.15 168.19-8.1 168.19-10.25ZM172.48-10.5L172.48-10.5Q172.48-9.05 173.01-7.8 173.53-6.55 174.44-5.65 175.33-4.75 176.58-4.23 177.83-3.7 179.33-3.7L179.33-3.7Q180.83-3.7 182.11-4.23 183.38-4.75 184.31-5.68 185.23-6.6 185.73-7.83 186.23-9.05 186.23-10.5L186.23-10.5Q186.23-11.95 185.73-13.18 185.23-14.4 184.31-15.3 183.38-16.2 182.11-16.73 180.83-17.25 179.33-17.25L179.33-17.25Q177.83-17.25 176.58-16.73 175.33-16.2 174.44-15.3 173.53-14.4 173.01-13.18 172.48-11.95 172.48-10.5ZM198.33-20.85L198.33-30.1 202.58-30.1 202.58-20.85 208.18-20.85 208.18-17.05 202.58-17.05 202.58 0 198.33 0 198.33-17.05 194.58-17.05 194.58-20.85 198.33-20.85Z" opacity="1" fill="#ffffff" class="wordmark-text-0" data-fill-palette-color="primary" id="text-0">
                                </path>
                            </svg>
                        </svg>
                    </svg>
                </svg>
            </svg>
            <defs>
            </defs>
        </svg>
    </svg>
</svg>